<?xml version="1.0" encoding="utf-8"?>
<!-- Generator: Adobe Illustrator 19.0.0, SVG Export Plug-In . SVG Version: 6.00 Build 0)  -->
<svg version="1.1" id="Camada_1" xmlns="http://www.w3.org/2000/svg" xmlns:xlink="http://www.w3.org/1999/xlink" x="0px" y="0px"
	 viewBox="0 0 60 40" style="enable-background:new 0 0 60 40;" xml:space="preserve">
<style type="text/css">
	.st0{clip-path:url(#XMLID_12_);fill:#E17F63;}
</style>
<g id="XMLID_2_">
	<defs>
		<rect id="XMLID_3_" x="5.6" y="6.1" width="48.8" height="27.8"/>
	</defs>
	<clipPath id="XMLID_12_">
		<use xlink:href="#XMLID_3_"  style="overflow:visible;"/>
	</clipPath>
	<path id="XMLID_5_" class="st0" d="M37.3,24.5L37.3,24.5h-1.5c-0.5,0-1.5,0.6-1.5,1.8c0,0.5,1,1.1,1.5,1.1h1.5c1,0,1.5-0.6,1.5-1.1
		C38.9,25,38.4,24.5,37.3,24.5 M37.3,18.1L37.3,18.1h-1.5c-0.5,0-1.5,0.6-1.5,1.2c0,1.1,1,1.7,1.5,1.7h1.5c1,0,1.5-0.6,1.5-1.7
		C38.9,18.6,38.4,18.1,37.3,18.1 M37.3,11L37.3,11h-1.5c-0.5,0-1.5,1.2-1.5,1.8c0,1.1,1,1.8,1.5,1.8h1.5c1,0,1.5-0.7,1.5-1.8
		C38.9,12.2,38.4,11,37.3,11 M42.9,14.6L42.9,14.6h10c0.5,0,1.5-0.7,1.5-1.8c0-0.6-1-1.8-1.5-1.8h-10c-0.5,0-1.5,1.2-1.5,1.8
		C41.4,13.9,42.4,14.6,42.9,14.6 M52.9,18.1L52.9,18.1h-10c-0.5,0-1.5,0.6-1.5,1.2c0,1.1,1,1.7,1.5,1.7h10c0.5,0,1.5-0.6,1.5-1.7
		C54.4,18.6,53.5,18.1,52.9,18.1 M52.9,24.5L52.9,24.5h-10c-0.5,0-1.5,0.6-1.5,1.8c0,0.5,1,1.1,1.5,1.1h10c0.5,0,1.5-0.6,1.5-1.1
		C54.4,25,53.5,24.5,52.9,24.5"/>
	<path id="XMLID_4_" class="st0" d="M26,27.2L26,27.2c-3.5-1.6-4.4-2.8-4.4-5.5c0-1.1,1-0.6,1.5-3.3c0-1.2,1,0,1-2.8
		c0-1.2-0.5-1.2-0.5-1.2s0.5-1.6,0.5-2.8c0-1.7-0.5-5.5-5.5-5.5S13,9.9,13,11.6c0,1.1,0.5,2.8,0.5,2.8s-0.5,0-0.5,1.2
		c0,2.8,1,1.6,1,2.8c0.5,2.8,1.5,2.2,1.5,3.3c0,2.8-1,3.9-4.5,5.5c-3.5,1.1-5.4,2.8-5.4,3.9v2.8h12.9h12.9v-2.8
		C31.4,30,29.4,28.4,26,27.2"/>
</g>
</svg>
